<?xml version="1.0" encoding="UTF-8"?>
<svg id="Layer_2" data-name="Layer 2" xmlns="http://www.w3.org/2000/svg" viewBox="0 0 518.29 324.28">
  <defs>
    <style>
      .cls-1 {
        fill: #fff;
      }

      .cls-1, .cls-2 {
        stroke-width: 0px;
      }

      .cls-2 {
        fill: #1e120e;
      }
    </style>
  </defs>
  <g id="Layer_3" data-name="Layer 3">
    <path class="cls-2" d="M518.29,84.57c-1.44-1.22-2.87-2.44-4.31-3.67,0,0,0,0,0,0,0,0-1.23-.97-2.57-1.82-31.63-19.98-101.82-28.3-101.82-28.3-14.25-1.69-15.65-1.38-23.68-2.92-24.58-4.72-41.53-13.36-50.17-17.48-28.34-13.52-62.48-22.31-75.43-25.15-12.73-2.79-56.98-11.95-108.41,3.53-41.45,12.47-68.88,35.25-80.89,46.38-3.93,3.64-95.97,91.32-64.45,179.43,11.34,31.69,33.84,49.98,43.62,57.73,59.61,47.23,136.45,29.56,157.54,24.7,31.99-7.36,59.93-23.11,77.53-35.84,2.48-1.8,5.6-4.37,9.48-7.93,27.12-24.92,34.74-53.27,42.81-73.26,6.36-15.77,31.6-75.13,80.63-96.55,14.55-6.36,30.7-9.05,63.05-14.2,15.21-2.42,28-3.82,37.08-4.67Z"/>
    <path class="cls-1" d="M99.95,290.36c-10.83-6.02-61.43-36.04-70.49-95.87-9.89-65.28,38.42-111.77,49.96-122.88,37.05-35.69,79.82-42.24,93.16-44.08,36.82-5.1,57.74,4.93,62.72,7.47,5.37,2.74,30.79,15.71,30.23,33.43-.25,8.03-5.8,15.46-7.18,17.31-3.01,4.02-8.68,11.6-14.71,11.18-8.11-.57-8.95-15.45-18.56-27.1-13.07-15.84-35.45-17.56-44.74-18.27-47.06-3.62-101.51,46.63-109.64,99.96-6.28,41.17,12.63,75.17,12.63,75.17,1.3,2.31,2.41,4.11,3.18,5.34,3.15,5.03,38.65,59.7,96.25,54.65,37.18-3.26,74.35-30.59,80.71-64.82,2.39-12.86,1.97-34.94-9.2-40.82-17.13-9-49.78,24.39-74.33,18.28-9.47-2.36-16.46-9.05-16.46-9.05-2.79-2.67-7.69-7.36-6.84-11.45,1.3-6.26,15.41-7.89,25.6-9.53,52.98-8.53,66.29-28.03,88.8-17.21,9.31,4.48,14.53,11.41,16.68,14.34,19.51,26.68,5.23,64.83,2.3,72.04-21.7,53.49-87.89,66.19-96.26,67.67-48.11,8.5-85.36-11.07-93.8-15.75Z"/>
  </g>
</svg>