<?xml version="1.0" encoding="UTF-8"?>
<svg id="Layer_2" data-name="Layer 2" xmlns="http://www.w3.org/2000/svg" viewBox="0 0 493.1 138.47">
  <defs>
    <style>
      .cls-1 {
        fill: #3d4491;
      }

      .cls-1, .cls-2 {
        stroke-width: 0px;
      }

      .cls-2 {
        fill: #fff;
      }
    </style>
  </defs>
  <g id="Layer_6" data-name="Layer 6">
    <path class="cls-1" d="M221.31,36.11l-1.84-1.57s0,0,0,0c0,0-.53-.41-1.1-.78-13.51-8.53-43.48-12.08-43.48-12.08-6.09-.72-6.68-.59-10.11-1.25-10.49-2.01-17.73-5.7-21.42-7.46-12.1-5.77-26.68-9.53-32.21-10.74-5.43-1.19-24.33-5.1-46.29,1.51-17.7,5.33-29.41,15.05-34.54,19.8-1.68,1.55-40.98,38.99-27.52,76.62,4.84,13.53,14.45,21.34,18.63,24.65,25.45,20.17,58.26,12.62,67.27,10.55,13.66-3.14,25.59-9.87,33.11-15.3,1.06-.77,2.39-1.87,4.05-3.39,11.58-10.64,14.83-22.74,18.28-31.28,2.72-6.73,13.49-32.08,34.43-41.23,6.21-2.71,13.11-3.87,26.92-6.06,6.5-1.03,11.96-1.63,15.83-1.99Z"/>
    <path class="cls-2" d="M42.68,123.98c-4.63-2.57-26.23-15.39-30.1-40.94-4.22-27.88,16.4-47.72,21.33-52.47,15.82-15.24,34.08-18.03,39.78-18.82,15.72-2.18,24.65,2.11,26.78,3.19,2.29,1.17,13.15,6.71,12.91,14.27-.11,3.43-2.48,6.6-3.07,7.39-1.28,1.72-3.71,4.95-6.28,4.77-3.46-.24-3.82-6.6-7.93-11.57-5.58-6.76-15.14-7.5-19.1-7.8-20.1-1.54-43.34,19.91-46.82,42.68-2.68,17.58,5.39,32.1,5.39,32.1.55.99,1.03,1.75,1.36,2.28,1.35,2.15,16.51,25.49,41.1,23.34,15.88-1.39,31.75-13.06,34.46-27.68,1.02-5.49.84-14.92-3.93-17.43-7.31-3.84-21.25,10.42-31.74,7.8-4.04-1.01-7.03-3.86-7.03-3.86-1.19-1.14-3.28-3.14-2.92-4.89.56-2.67,6.58-3.37,10.93-4.07,22.62-3.64,28.3-11.97,37.92-7.35,3.98,1.91,6.21,4.87,7.12,6.12,8.33,11.39,2.23,27.68.98,30.76-9.27,22.84-37.53,28.26-41.1,28.9-20.54,3.63-36.45-4.73-40.05-6.73Z"/>
    <path class="cls-1" d="M173.62,134.03c-5.54-3.17-5.63-12.42-5.84-20.57-1.22-46.59.75-51.83,3.97-52.73,2.4-.67,4.88,1.27,5.11,1.45,5.03,4.03,2.14,14.29,1.85,15.29,1.72-2.26,5.75-6.9,12.54-9.23,1.86-.64,6.61-2.2,12.34-.93,2.66.59,5.68,1.26,7.5,3.83,3.3,4.65.64,12.66-1.98,13.11-1.97.34-2.6-3.8-7-5.81-4.35-1.99-9.04-.35-10.83.27-9.27,3.23-13.21,13.11-13.77,14.59-3.76,9.83-2.75,24.62,2.73,34.51.89,1.61,2.83,4.77,1.67,6.42-1.23,1.74-5.6,1.34-8.28-.2Z"/>
    <path class="cls-1" d="M270.25,80.81c-1.18-2.45-2.68-4.04-3.35-4.76,0,0-4.3-4.66-11.11-6.63-11.31-3.28-28.36,2.62-30.25,11.79-1.09,5.32,2.92,11.73,5.36,11.57,1.61-.11,1.67-3.02,4.39-7.11,1.08-1.63,7.2-10.42,14.93-9.72,5.18.46,8.5,4.94,9.39,6.15,3.55,4.8,3.32,10.01,3.2,11.47v3.97c-4.1-1.13-12.89-2.93-22.65.13-6.28,1.97-10.41,5.19-11.61,6.1-3.38,2.59-5.13,4.13-6.09,6.65-2.72,7.11,3.6,16.82,10.75,21.2,4.45,2.73,8.8,3.08,10.51,3.21,2.37.18,7.88.51,13.36-2.87,3.04-1.87,4.94-4.19,5.99-5.71v2.95c0,1.71.43,3.03,1.28,3.97.85.94,2.09,1.41,3.72,1.41,1.54,0,2.71-.47,3.52-1.41.81-.94,1.22-2.26,1.22-3.97v-34.72c0-5.55-.86-10.1-2.56-13.65ZM256.96,122.65c-.49.46-1.29,1.19-2.53,1.92-4.34,2.57-11.03,3.31-16.5-.24-3.16-2.05-7.59-6.63-6.83-11.09,1.64-9.6,26.77-15.39,31.6-8.85,2.86,3.87-.46,13.36-5.73,18.26Z"/>
    <path class="cls-1" d="M317.32,135.72c-6.24,0-11.62-1.37-16.14-4.1-4.53-2.73-8.01-6.55-10.44-11.47-2.43-4.91-3.65-10.61-3.65-17.1s1.39-11.29,2.05-13.32c.71-2.19,2.22-6.83,5.44-10.94,6.49-8.3,18.53-12.69,29.24-10.53,5.55,1.12,14.5,4.75,15.2,10.42.34,2.72-1.2,6.16-1.54,6.94-.54,1.22-2.02,4.51-3.44,4.36-1.37-.15-1.48-3.39-2.62-5.75-3.04-6.29-15.18-10.14-24.5-6.38-12.57,5.08-13.4,21.35-13.56,24.32-.15,2.99-.4,9.68,3.91,16.04.95,1.41,3.59,5.18,8.6,7.53,7.23,3.38,16.82,2.57,22.05-2.42,3.73-3.55,4.26-8.28,6.11-8,1.85.28,2.91,5.23,3.17,6.44.28,1.31.44,2.07.3,3.1-.36,2.6-2.26,4.27-3.89,5.66-.82.7-3,2.44-6.81,3.76-.77.27-4.32,1.47-9.48,1.47Z"/>
    <path class="cls-1" d="M374.1,103.46c.64-.91,1.68-2.34,3.02-4.03,11.54-14.47,22.33-18.11,21.23-21.63-.76-2.43-6.8-3.56-10.77-1.66-1.76.85-2.59,2.04-4.61,4.93-7.61,10.87-8.75,12.34-10.06,13.68-1.87,1.92-4.87,4.42-9.61,6.42h-.26c-.24-5.17-.3-13.04.94-22.51,2.55-19.51,8.55-30.1,4.92-32.64-2.68-1.87-9.26,1.61-12.58,6.3-3.31,4.67-3.02,10.02-2.91,12.41.8,17.77-.89,42.06,3.22,64.88.29,1.62.97,5.12,3.66,6.59,2.43,1.32,6.21.84,7.33-1.07.65-1.11.24-2.46,0-3.27-2.75-9.19-4.03-17.32-4.39-21.27-.07-.82-.18-2.24-.18-4.04h.26c1.35.7,2.75,1.47,4.17,2.32,0,0,0,0,0,0,0,0,2.32,1.4,4.32,2.82,1.05.74,6.96,5.34,12.59,14.31,2.22,3.54,2.41,4.59,4.37,6.52,1.63,1.6,4.6,4.53,8.51,4.14,2.71-.27,5.95-2.15,6.13-4.38.23-2.95-4.99-5.42-8.09-7.16-5.95-3.35-13.7-9.47-21.21-21.66Z"/>
    <path class="cls-1" d="M414.79,56.77c.31-2.42,1.07-6.96,4.48-9.12,1.9-1.2,4.93-1.86,6.88-.96,9.29,4.29-9.76,41.99-1.6,71.12.95,3.41,4.6,14.98.33,18.08-.83.6-1.86.82-2.63.76-11.28-.87-9.25-66.01-7.46-79.88Z"/>
    <path class="cls-1" d="M485.6,102.71c1.56-.94,4.45-2.73,6.17-6.22,3.02-6.15.06-12.81-.86-14.91-3.06-6.99-8.9-10.18-10.52-11.03,0,0-.85-.45-2.38-.96,0,0-3.11-1.08-6.47-1.37-3.83-.32-11.54.78-18.81,5.67-6.15,4.14-9.42,9.27-10.81,11.76-3.69,6.61-4.15,12.61-4.38,16.05-.26,3.9-.68,10.39,2.38,17.21.36.81,7.3,15.57,22.07,17.39,14.25,1.76,28.72-9.85,28.5-17.6-.05-1.93-1.08-5.48-2.54-5.63-1.13-.12-2.16,1.8-2.66,2.66-3.56,6.15-10.14,10.82-13.73,12.33-7.96,3.34-17.01-2.2-18.22-2.96,0,0-7.72-4.84-10.3-14.26-.58-2.12-1.68-6.13.19-7.85,1.85-1.71,5.51-.2,8.91.87,1.11.35,21.03,6.35,33.47-1.12ZM472.16,74.32c7.34,2.68,12.05,12.16,9.34,17.98-2.11,4.54-8.27,5.87-13.09,6.92-.98.21-4.85,1-10.02.45-5.38-.57-9.78-1.04-11.43-3.8-2.73-4.59,3.04-13.96,10.24-18.55,2.36-1.51,8.43-5.38,14.96-3Z"/>
  </g>
</svg>