<?xml version="1.0" encoding="UTF-8"?>
<svg id="Layer_2" data-name="Layer 2" xmlns="http://www.w3.org/2000/svg" viewBox="0 0 483.06 188.39">
  <defs>
    <style>
      .cls-1 {
        fill: #d9ea57;
      }

      .cls-1, .cls-2 {
        stroke-width: 0px;
      }

      .cls-2 {
        fill: #1e120e;
      }
    </style>
  </defs>
  <g id="Layer_7" data-name="Layer 7">
    <path class="cls-2" d="M54.86,182.42c-3.62-2.01-20.53-12.05-23.56-32.05-3.31-21.82,12.84-37.36,16.7-41.08,12.38-11.93,26.68-14.12,31.14-14.74,12.31-1.71,19.3,1.65,20.96,2.5,1.79.92,10.29,5.25,10.1,11.17-.09,2.68-1.94,5.17-2.4,5.79-1.01,1.34-2.9,3.88-4.92,3.74-2.71-.19-2.99-5.17-6.21-9.06-4.37-5.29-11.85-5.87-14.96-6.11-15.73-1.21-33.93,15.59-36.65,33.41-2.1,13.76,4.22,25.13,4.22,25.13.43.77.81,1.37,1.06,1.78,1.05,1.68,12.92,19.96,32.18,18.27,12.43-1.09,24.85-10.23,26.98-21.67.8-4.3.66-11.68-3.08-13.64-5.73-3.01-16.64,8.15-24.85,6.11-3.16-.79-5.5-3.03-5.5-3.03-.93-.89-2.57-2.46-2.29-3.83.44-2.09,5.15-2.64,8.56-3.19,17.71-2.85,22.16-9.37,29.68-5.75,3.11,1.5,4.86,3.81,5.57,4.79,6.52,8.92,1.75,21.67.77,24.08-7.25,17.88-29.38,22.13-32.18,22.62-16.08,2.84-28.54-3.7-31.35-5.26Z"/>
    <path class="cls-2" d="M139.33,185.25c-5.96-3.41-6.06-13.36-6.29-22.13-1.31-50.13.81-55.77,4.27-56.74,2.58-.72,5.25,1.37,5.5,1.56,5.41,4.33,2.31,15.37,1.99,16.45,1.85-2.44,6.19-7.42,13.49-9.93,2-.69,7.11-2.37,13.28-1,2.86.63,6.11,1.36,8.07,4.12,3.55,5.01.69,13.62-2.14,14.1-2.12.36-2.8-4.09-7.54-6.25-4.68-2.14-9.72-.38-11.65.29-9.97,3.47-14.21,14.11-14.82,15.7-4.04,10.58-2.96,26.49,2.94,37.13.96,1.74,3.05,5.13,1.79,6.91-1.33,1.87-6.02,1.44-8.91-.22Z"/>
    <path class="cls-2" d="M243.3,128c-1.27-2.63-2.89-4.34-3.61-5.12,0,0-4.63-5.01-11.95-7.13-12.17-3.53-30.51,2.82-32.54,12.69-1.18,5.72,3.15,12.62,5.76,12.45,1.73-.11,1.8-3.25,4.72-7.65,1.16-1.76,7.74-11.21,16.07-10.46,5.57.5,9.14,5.32,10.1,6.61,3.82,5.16,3.57,10.77,3.45,12.34v4.27c-4.41-1.21-13.87-3.15-24.37.14-6.76,2.12-11.2,5.58-12.49,6.57-3.64,2.79-5.52,4.45-6.55,7.15-2.92,7.65,3.87,18.09,11.56,22.81,4.79,2.94,9.46,3.31,11.3,3.45,2.54.19,8.48.55,14.37-3.09,3.27-2.02,5.31-4.51,6.44-6.15v3.17c0,1.84.46,3.26,1.38,4.27.92,1.01,2.25,1.52,4,1.52,1.65,0,2.92-.51,3.79-1.52.87-1.01,1.31-2.43,1.31-4.27v-37.36c0-5.97-.92-10.87-2.76-14.68ZM228.99,173.01c-.53.49-1.39,1.28-2.72,2.07-4.67,2.76-11.87,3.56-17.75-.26-3.4-2.2-8.17-7.13-7.35-11.93,1.76-10.33,28.8-16.56,33.99-9.52,3.08,4.17-.49,14.38-6.17,19.65Z"/>
    <path class="cls-2" d="M293.94,187.07c-6.71,0-12.5-1.47-17.37-4.41-4.87-2.94-8.62-7.05-11.24-12.34-2.62-5.28-3.93-11.42-3.93-18.4s1.49-12.14,2.2-14.34c.77-2.36,2.39-7.35,5.85-11.77,6.98-8.93,19.93-13.65,31.46-11.33,5.97,1.2,15.6,5.11,16.36,11.21.36,2.93-1.29,6.63-1.66,7.46-.58,1.31-2.17,4.86-3.7,4.69-1.48-.16-1.59-3.64-2.82-6.19-3.27-6.77-16.33-10.91-26.36-6.87-13.52,5.46-14.42,22.97-14.58,26.17-.16,3.22-.43,10.41,4.21,17.25,1.03,1.51,3.86,5.58,9.26,8.1,7.78,3.64,18.09,2.76,23.72-2.61,4.01-3.82,4.58-8.91,6.57-8.61,1.99.3,3.13,5.63,3.41,6.93.3,1.41.47,2.22.32,3.33-.38,2.8-2.43,4.6-4.18,6.09-.88.75-3.23,2.62-7.33,4.04-.82.29-4.65,1.59-10.2,1.59Z"/>
    <path class="cls-2" d="M355.02,152.36c.69-.98,1.8-2.52,3.25-4.34,12.42-15.57,24.02-19.49,22.84-23.27-.81-2.62-7.31-3.84-11.58-1.79-1.9.91-2.78,2.19-4.96,5.3-8.18,11.7-9.41,13.27-10.83,14.72-2.01,2.07-5.24,4.75-10.34,6.91h-.28c-.26-5.56-.32-14.03,1.01-24.21,2.74-20.99,9.2-32.39,5.29-35.11-2.89-2.01-9.97,1.74-13.54,6.77-3.57,5.03-3.25,10.78-3.14,13.35.86,19.12-.96,45.25,3.47,69.8.31,1.74,1.05,5.51,3.94,7.09,2.61,1.42,6.69.9,7.88-1.15.7-1.2.26-2.65,0-3.52-2.95-9.89-4.33-18.63-4.72-22.89-.08-.88-.2-2.41-.19-4.35h.28c1.46.75,2.96,1.58,4.48,2.5,0,0,0,0,0,0,0,0,2.49,1.51,4.65,3.03,1.13.8,7.49,5.74,13.54,15.39,2.39,3.81,2.59,4.93,4.71,7.02,1.75,1.72,4.95,4.87,9.16,4.45,2.92-.29,6.4-2.31,6.59-4.71.25-3.18-5.37-5.83-8.7-7.7-6.4-3.6-14.74-10.19-22.82-23.3Z"/>
    <path class="cls-2" d="M398.81,102.13c.34-2.61,1.15-7.49,4.82-9.81,2.05-1.3,5.3-2,7.4-1.03,10,4.61-10.5,45.17-1.73,76.51,1.03,3.67,4.95,16.12.36,19.46-.89.65-2.01.88-2.83.82-12.13-.93-9.95-71.02-8.03-85.94Z"/>
    <path class="cls-2" d="M474.99,151.56c1.68-1.01,4.79-2.93,6.64-6.69,3.25-6.61.06-13.79-.93-16.05-3.29-7.52-9.57-10.95-11.32-11.87,0,0-.91-.48-2.56-1.04,0,0-3.35-1.17-6.96-1.47-4.12-.35-12.42.84-20.24,6.1-6.62,4.45-10.14,9.97-11.63,12.65-3.97,7.11-4.47,13.57-4.71,17.27-.28,4.2-.74,11.17,2.56,18.51.39.87,7.86,16.75,23.74,18.71,15.34,1.9,30.9-10.6,30.66-18.94-.06-2.08-1.16-5.89-2.73-6.06-1.21-.13-2.33,1.94-2.86,2.86-3.83,6.62-10.91,11.64-14.77,13.26-8.56,3.59-18.3-2.37-19.6-3.19,0,0-8.31-5.21-11.09-15.34-.63-2.28-1.81-6.59.2-8.45,1.99-1.84,5.93-.21,9.59.93,1.19.37,22.63,6.83,36.01-1.2ZM460.53,121.01c7.9,2.88,12.97,13.08,10.05,19.35-2.27,4.89-8.9,6.32-14.08,7.44-1.05.23-5.22,1.07-10.78.48-5.79-.61-10.52-1.12-12.29-4.09-2.94-4.93,3.27-15.02,11.01-19.96,2.54-1.62,9.07-5.79,16.09-3.23Z"/>
    <path class="cls-2" d="M151.85,23.23s0,0,0,0c0,0-.35-.28-.74-.52-9.08-5.74-29.23-8.13-29.23-8.13-4.09-.48-4.49-.4-6.8-.84-7.06-1.35-11.92-3.83-14.4-5.02-8.14-3.88-17.94-6.4-21.66-7.22-3.65-.8-16.36-3.43-31.13,1.01-2.14.64-12.76,3.98-23.23,13.32C6.15,32.36,2.16,55.16,1.04,62.08c-2.98,18.51,1.21,25.66,2.62,42.08.85,9.88-.48,9.11.17,19.34.73,11.45,1.57,24.75,9.31,37.05,2.85,4.53,9.14,12.9,21.79,19.47-3-3.68-12.4-16.14-12.56-34.47-.04-4.23.34-17.94,9.23-30.86,6.89-10.01,19.28-20.13,32.3-23.68,3.41-.93,12.73-3.4,22.26-10.29.7-.5,1.6-1.25,2.72-2.28,7.79-7.16,9.97-15.29,12.29-21.04,1.83-4.53,9.07-21.57,23.15-27.72,3-1.31,4.09-.66,18.1-4.08,3.97-.97,7.22-1.81,9.41-2.39Z"/>
    <circle class="cls-1" cx="74.55" cy="28.95" r="10.69"/>
    <circle class="cls-2" cx="74.55" cy="28.95" r="4.56"/>
  </g>
</svg>