<?xml version="1.0" encoding="UTF-8"?>
<svg id="Layer_2" data-name="Layer 2" xmlns="http://www.w3.org/2000/svg" viewBox="0 0 486.33 226.21">
  <defs>
    <style>
      .cls-1 {
        fill: #c4342d;
      }

      .cls-1, .cls-2, .cls-3, .cls-4 {
        stroke-width: 0px;
      }

      .cls-2 {
        fill: #3d4491;
      }

      .cls-3 {
        fill: #e1ca38;
      }

      .cls-4 {
        fill: #fff;
      }
    </style>
  </defs>
  <g id="Layer_5" data-name="Layer 5">
    <path class="cls-2" d="M190.46,129.25c-3.11-1.73-17.62-10.34-20.22-27.51-2.84-18.73,11.02-32.07,14.33-35.26,10.63-10.24,22.9-12.12,26.73-12.65,10.56-1.46,16.56,1.41,17.99,2.14,1.54.79,8.83,4.51,8.67,9.59-.07,2.3-1.66,4.43-2.06,4.97-.86,1.15-2.49,3.33-4.22,3.21-2.33-.16-2.57-4.43-5.33-7.78-3.75-4.54-10.17-5.04-12.84-5.24-13.5-1.04-29.12,13.38-31.46,28.68-1.8,11.81,3.62,21.57,3.62,21.57.37.66.69,1.18.91,1.53.9,1.44,11.09,17.13,27.62,15.68,10.67-.93,21.33-8.78,23.16-18.6.69-3.69.56-10.03-2.64-11.71-4.91-2.58-14.28,7-21.32,5.24-2.72-.68-4.72-2.6-4.72-2.6-.8-.76-2.21-2.11-1.96-3.28.37-1.8,4.42-2.26,7.35-2.73,15.2-2.45,19.02-8.04,25.48-4.94,2.67,1.28,4.17,3.27,4.78,4.11,5.6,7.65,1.5,18.6.66,20.67-6.23,15.35-25.22,18.99-27.62,19.41-13.8,2.44-24.49-3.17-26.91-4.52Z"/>
    <path class="cls-2" d="M261.59,132.32c-3.9-2.23-3.96-8.74-4.11-14.47-.86-32.77.53-36.46,2.79-37.1,1.69-.47,3.44.89,3.6,1.02,3.54,2.83,1.51,10.05,1.3,10.75,1.21-1.59,4.04-4.85,8.82-6.49,1.31-.45,4.65-1.55,8.68-.66,1.87.41,4,.89,5.28,2.69,2.32,3.27.45,8.9-1.4,9.22-1.38.24-1.83-2.67-4.93-4.09-3.06-1.4-6.36-.25-7.62.19-6.52,2.27-9.29,9.22-9.69,10.27-2.64,6.92-1.93,17.32,1.92,24.28.63,1.14,1.99,3.35,1.17,4.52-.87,1.23-3.94.94-5.83-.14Z"/>
    <path class="cls-2" d="M329.57,94.89c-.83-1.72-1.89-2.84-2.36-3.35,0,0-3.02-3.27-7.81-4.66-7.95-2.31-19.95,1.84-21.28,8.29-.77,3.74,2.06,8.25,3.77,8.14,1.13-.07,1.18-2.12,3.09-5,.76-1.15,5.06-7.33,10.5-6.84,3.64.33,5.98,3.48,6.61,4.32,2.5,3.38,2.33,7.04,2.25,8.07v2.79c-2.88-.79-9.07-2.06-15.93.09-4.42,1.39-7.32,3.65-8.17,4.29-2.38,1.82-3.61,2.91-4.28,4.68-1.91,5,2.53,11.83,7.56,14.91,3.13,1.92,6.19,2.17,7.39,2.26,1.66.12,5.54.36,9.4-2.02,2.14-1.32,3.47-2.95,4.21-4.02v2.07c0,1.2.3,2.13.9,2.79.6.66,1.47.99,2.61.99,1.08,0,1.91-.33,2.48-.99.57-.66.86-1.59.86-2.79v-24.42c0-3.91-.6-7.1-1.8-9.6ZM320.22,124.32c-.35.32-.91.84-1.78,1.35-3.06,1.81-7.76,2.33-11.61-.17-2.22-1.44-5.34-4.66-4.81-7.8,1.15-6.75,18.83-10.83,22.23-6.23,2.01,2.72-.32,9.4-4.03,12.84Z"/>
    <path class="cls-2" d="M362.68,133.51c-4.39,0-8.17-.96-11.36-2.88-3.19-1.92-5.63-4.61-7.35-8.07-1.71-3.45-2.57-7.47-2.57-12.03s.98-7.94,1.44-9.37c.5-1.54,1.56-4.8,3.82-7.7,4.56-5.84,13.03-8.92,20.57-7.41,3.91.79,10.2,3.34,10.69,7.33.24,1.92-.84,4.33-1.09,4.88-.38.86-1.42,3.17-2.42,3.07-.96-.1-1.04-2.38-1.84-4.05-2.14-4.42-10.68-7.14-17.23-4.49-8.84,3.57-9.43,15.02-9.54,17.11-.11,2.1-.28,6.81,2.75,11.28.67.99,2.52,3.65,6.05,5.3,5.09,2.38,11.83,1.81,15.51-1.7,2.62-2.5,2.99-5.83,4.3-5.63,1.3.2,2.05,3.68,2.23,4.53.2.92.31,1.45.21,2.18-.25,1.83-1.59,3.01-2.73,3.98-.57.49-2.11,1.71-4.79,2.64-.54.19-3.04,1.04-6.67,1.04Z"/>
    <path class="cls-2" d="M402.62,110.82c.45-.64,1.18-1.65,2.13-2.84,8.12-10.18,15.71-12.74,14.94-15.22-.53-1.71-4.78-2.51-7.57-1.17-1.24.59-1.82,1.43-3.24,3.47-5.35,7.65-6.16,8.68-7.08,9.62-1.32,1.35-3.43,3.11-6.76,4.52h-.18c-.17-3.64-.21-9.18.66-15.83,1.79-13.73,6.01-21.18,3.46-22.96-1.89-1.32-6.52,1.14-8.85,4.43-2.33,3.29-2.13,7.05-2.05,8.73.56,12.5-.63,29.59,2.27,45.64.2,1.14.68,3.6,2.58,4.64,1.71.93,4.37.59,5.16-.75.46-.78.17-1.73,0-2.3-1.93-6.47-2.83-12.18-3.09-14.96-.05-.57-.13-1.57-.13-2.85h.18c.95.49,1.93,1.03,2.93,1.63,0,0,0,0,0,0,0,0,1.63.98,3.04,1.98.74.52,4.89,3.75,8.85,10.06,1.56,2.49,1.69,3.23,3.08,4.59,1.15,1.13,3.24,3.19,5.99,2.91,1.91-.19,4.19-1.51,4.31-3.08.16-2.08-3.51-3.81-5.69-5.04-4.18-2.36-9.64-6.66-14.92-15.24Z"/>
    <path class="cls-2" d="M431.25,77.98c.22-1.7.75-4.9,3.15-6.42,1.34-.85,3.47-1.31,4.84-.68,6.54,3.02-6.86,29.53-1.13,50.03.67,2.4,3.23,10.54.23,12.72-.58.42-1.31.58-1.85.54-7.93-.61-6.5-46.44-5.25-56.19Z"/>
    <path class="cls-2" d="M481.06,110.3c1.1-.66,3.13-1.92,4.34-4.37,2.12-4.32.04-9.01-.61-10.49-2.15-4.92-6.26-7.16-7.4-7.76,0,0-.6-.32-1.67-.68,0,0-2.19-.76-4.55-.96-2.69-.23-8.12.55-13.23,3.99-4.33,2.91-6.63,6.52-7.61,8.27-2.59,4.65-2.92,8.87-3.08,11.29-.18,2.75-.48,7.31,1.67,12.11.25.57,5.14,10.95,15.52,12.24,10.03,1.24,20.2-6.93,20.05-12.38-.04-1.36-.76-3.85-1.79-3.96-.79-.08-1.52,1.27-1.87,1.87-2.5,4.33-7.13,7.61-9.66,8.67-5.6,2.35-11.96-1.55-12.82-2.08,0,0-5.43-3.41-7.25-10.03-.41-1.49-1.18-4.31.13-5.53,1.3-1.2,3.87-.14,6.27.61.78.24,14.8,4.47,23.54-.79ZM471.6,90.32c5.16,1.88,8.48,8.55,6.57,12.65-1.49,3.2-5.82,4.13-9.21,4.86-.69.15-3.41.7-7.05.32-3.78-.4-6.88-.73-8.04-2.67-1.92-3.23,2.14-9.82,7.2-13.05,1.66-1.06,5.93-3.78,10.52-2.11Z"/>
    <path class="cls-1" d="M253.21,216.08c-23.58-8.73-38.92-22.54-47.68-30.79-27.9-26.29-49.59-53.27-78.33-82.71-1.07-1.09-8.2-8.36-19.2-15.87-10.66-7.28-21.19-14.29-34.73-14.57-1.46-.03-12.43-.14-20.76,5.32-4.22,2.77-6.86,6.38-6.86,6.38-1.93,2.64-2.84,4.99-3.42,6.52-2.17,5.73-2.16,10.71-2.12,14.97.04,4.23.54,7.56.84,9.28.31,1.78,1.72,9.31,6.77,18.88,3.24,6.13,7.57,12.33,13.52,18.47,6.29,6.49,15.05,13.62,37.51,24.96,0,0,28.41,14.35,63.64,25.77,10.63,3.45,23,7,23,7,8.2,2.35,12.31,3.53,17.31,4.72,3.15.75,18.36,4.32,35.24,5.47,5.34.37,11.13.51,18.07-.34,1.9-.23,3.45-.49,4.45-.66.4,0,.8,0,1.19,0-1.96-.57-4.92-1.49-8.46-2.8Z"/>
    <path class="cls-3" d="M161.23,215.23c-10.61-3.3-30.09-9.44-52.57-20.08-27-12.79-46.24-21.9-61.89-41.82-9.32-11.86-12.83-21.81-14.43-27.83-1.31-4.91-3.86-14.89-1.57-27.48,1.2-6.61,3.35-11.84,5.11-15.38-1.34.71-3.21,1.81-5.26,3.39-8.54,6.59-11.95,15.19-13.4,18.98-2.35,6.15-2.81,11.04-3.42,17.57-.74,7.89-.24,13.95.03,16.61.24,2.35.6,4.86,1.13,7.52.27,1.36,1.56,7.64,4.31,14.41,12.73,31.41,46.28,47.81,54.81,51.83,2.03.95,3.61,1.64,4.63,2.08,23.86,10.33,44.8,10.81,58.98,11.14,19.01.44,34.84-2.09,45.96-4.6-5.54-1.41-13.28-3.49-22.41-6.33ZM75.98,208.78c.22.1.43.21.65.31.02.03.05.05.07.08-.24-.13-.48-.26-.72-.38Z"/>
    <path class="cls-2" d="M112.62,17.23s0,0,0,0c0,0-.26-.21-.55-.39-6.74-4.26-21.68-6.03-21.68-6.03-3.03-.36-3.33-.29-5.04-.62-5.23-1-8.84-2.84-10.68-3.72-6.04-2.88-13.3-4.75-16.06-5.35-2.71-.59-12.13-2.54-23.09.75-1.59.48-9.46,2.95-17.23,9.88C4.56,24,1.6,40.91.77,46.05c-2.92,18.14,3.44,21.56,2.07,45.55-.17,3-.75,11.18,1.25,21.67.79,4.17,1.76,7.51,2.43,9.63-.3-3.66-.34-9.02,1.04-15.25.79-3.54,3.21-12.63,10.37-21.29.94-1.14,5.69-6.69,13.4-11.51,1.22-.76,2.95-1.78,16.08-7.34,10.26-4.34,13.79-5.66,16.51-7.63.52-.37,1.19-.93,2.02-1.69,5.77-5.31,7.4-11.34,9.12-15.6,1.35-3.36,6.73-16,17.17-20.56,3.1-1.35,6.54-1.93,13.43-3.02,3.24-.52,5.96-.81,7.9-.99-.31-.26-.61-.52-.92-.78Z"/>
    <circle class="cls-4" cx="57.65" cy="20.09" r="5.06"/>
  </g>
</svg>